<svg width="32" height="32" viewBox="0 0 32 32" fill="none" xmlns="http://www.w3.org/2000/svg">
<g clip-path="url(#clip0_2502_1143)">
<rect width="32" height="32" rx="5" fill="#1C1C1C"/>
<g filter="url(#filter0_f_2502_1143)">
<circle cx="11.3125" cy="11.3125" r="10.3125" fill="#2C66E2"/>
</g>
<g filter="url(#filter1_f_2502_1143)">
<circle cx="25.0625" cy="23.6875" r="10.3125" fill="#7547CA"/>
</g>
<path d="M11.7796 18.7841H15.2568V22.2614H13.5182V24H4.82502V22.2614H3.08638V8.35227H4.82502V6.61364H13.5182V8.35227H15.2568V11.8295H11.7796V10.0909H8.30229V11.8295H6.56365V18.7841H8.30229V20.5227H11.7796V18.7841ZM17 11.8295H18.7386V10.0909H20.4773V8.35227H22.2159V6.61364H23.9545V8.35227H25.6932V10.0909H27.4318V11.8295H29.1705V24H25.6932V20.5227H20.4773V24H17V11.8295ZM20.4773 17.0455H25.6932V13.5682H23.9545V11.8295H22.2159V13.5682H20.4773V17.0455Z" fill="white"/>
</g>
<defs>
<filter id="filter0_f_2502_1143" x="-12.8875" y="-12.8875" width="48.4" height="48.4" filterUnits="userSpaceOnUse" color-interpolation-filters="sRGB">
<feFlood flood-opacity="0" result="BackgroundImageFix"/>
<feBlend mode="normal" in="SourceGraphic" in2="BackgroundImageFix" result="shape"/>
<feGaussianBlur stdDeviation="6.94375" result="effect1_foregroundBlur_2502_1143"/>
</filter>
<filter id="filter1_f_2502_1143" x="0.862499" y="-0.512501" width="48.4" height="48.4" filterUnits="userSpaceOnUse" color-interpolation-filters="sRGB">
<feFlood flood-opacity="0" result="BackgroundImageFix"/>
<feBlend mode="normal" in="SourceGraphic" in2="BackgroundImageFix" result="shape"/>
<feGaussianBlur stdDeviation="6.94375" result="effect1_foregroundBlur_2502_1143"/>
</filter>
<clipPath id="clip0_2502_1143">
<rect width="32" height="32" rx="5" fill="white"/>
</clipPath>
</defs>
</svg>
