<svg width="32" height="32" viewBox="0 0 32 32" fill="none" xmlns="http://www.w3.org/2000/svg">
<g clip-path="url(#clip0_2501_1143)">
<rect x="16" y="0.758168" width="21.5925" height="21.5925" rx="2.68053" transform="rotate(45 16 0.758168)" stroke="white" stroke-width="1.07221"/>
<path d="M13.3304 17.8332H15.4417V19.9444H14.386V21H9.10805V19.9444H8.05245V11.4996H9.10805V10.444H14.386V11.4996H15.4417V13.6108H13.3304V12.5552H11.2192V13.6108H10.1636V17.8332H11.2192V18.8888H13.3304V17.8332ZM16.5 13.6108H17.5556V12.5552H18.6112V11.4996H19.6668V10.444H20.7224V11.4996H21.778V12.5552H22.8336V13.6108H23.8892V21H21.778V18.8888H18.6112V21H16.5V13.6108ZM18.6112 16.7776H21.778V14.6664H20.7224V13.6108H19.6668V14.6664H18.6112V16.7776Z" fill="white"/>
</g>
<defs>
<clipPath id="clip0_2501_1143">
<rect width="32" height="32" fill="white"/>
</clipPath>
</defs>
</svg>
